<svg width="31" height="36" viewBox="0 0 31 36" fill="none" xmlns="http://www.w3.org/2000/svg">
<path d="M14.5604 16.0183C18.9837 16.0183 22.5696 12.4325 22.5696 8.00915C22.5696 3.58582 18.9837 0 14.5604 0C10.1371 0 6.55127 3.58582 6.55127 8.00915C6.55127 12.4325 10.1371 16.0183 14.5604 16.0183Z" fill="white"/>
<path d="M14.5607 20.0229C6.53547 20.0229 0 25.4051 0 32.0367C0 32.4852 0.352403 32.8376 0.800915 32.8376H28.3204C28.7689 32.8376 29.1213 32.4852 29.1213 32.0367C29.1213 25.4051 22.5859 20.0229 14.5607 20.0229Z" fill="white"/>
<circle cx="23" cy="28" r="7.5" fill="white" stroke="#D90429"/>
<path d="M20 25L23.25 28.25L26.5 31.5" stroke="#D90429" stroke-linecap="round"/>
<path d="M26.5 25L20 31.5" stroke="#D90429" stroke-linecap="round"/>
</svg>
