<svg width="31" height="34" viewBox="0 0 31 34" fill="none" xmlns="http://www.w3.org/2000/svg">
<path d="M20.1089 0.833333V10.6667C20.1089 11.4 19.2423 11.7667 18.7089 11.2833L15.7923 8.6C15.4756 8.3 14.9756 8.3 14.6589 8.6L11.7423 11.2667C11.209 11.7667 10.3423 11.3833 10.3423 10.6667V0.833333C10.3423 0.366667 10.709 0 11.1756 0H19.2756C19.7423 0 20.1089 0.366667 20.1089 0.833333Z" fill="white"/>
<path d="M23.5251 0.0982262C23.0418 0.0315596 22.6084 0.448226 22.6084 0.93156V10.9649C22.6084 12.2316 21.8584 13.3815 20.6918 13.8982C19.5251 14.3982 18.1751 14.1815 17.2418 13.3149L15.7918 11.9816C15.4751 11.6816 14.9918 11.6816 14.6584 11.9816L13.2084 13.3149C12.6084 13.8815 11.8251 14.1649 11.0418 14.1649C10.6084 14.1649 10.1751 14.0815 9.75843 13.8982C8.59176 13.3815 7.84176 12.2316 7.84176 10.9649V0.93156C7.84176 0.448226 7.40843 0.0315596 6.9251 0.0982262C2.25843 0.68156 0.225098 3.83156 0.225098 8.33156V24.9982C0.225098 29.9982 2.7251 33.3315 8.55843 33.3315H21.8918C27.7251 33.3315 30.2251 29.9982 30.2251 24.9982V8.33156C30.2251 3.83156 28.1918 0.68156 23.5251 0.0982262ZM24.3918 27.9149H10.2251C9.54176 27.9149 8.9751 27.3482 8.9751 26.6649C8.9751 25.9815 9.54176 25.4149 10.2251 25.4149H24.3918C25.0751 25.4149 25.6418 25.9815 25.6418 26.6649C25.6418 27.3482 25.0751 27.9149 24.3918 27.9149ZM24.3918 21.2482H17.3084C16.6251 21.2482 16.0584 20.6815 16.0584 19.9982C16.0584 19.3149 16.6251 18.7482 17.3084 18.7482H24.3918C25.0751 18.7482 25.6418 19.3149 25.6418 19.9982C25.6418 20.6815 25.0751 21.2482 24.3918 21.2482Z" fill="white"/>
</svg>
