<svg width="29" height="30" viewBox="0 0 29 30" fill="none" xmlns="http://www.w3.org/2000/svg">
<path d="M22.5545 8.37833C22.4529 8.36381 22.3512 8.36381 22.2496 8.37833C19.9989 8.30573 18.2129 6.46162 18.2129 4.19642C18.2129 1.88766 20.086 0 22.4093 0C24.7181 0 26.6057 1.87314 26.6057 4.19642C26.5912 6.46162 24.8052 8.30573 22.5545 8.37833Z" fill="white"/>
<path d="M27.2919 18.4416C25.6656 19.5306 23.3858 19.9372 21.2804 19.6613C21.8321 18.4706 22.1226 17.1492 22.1371 15.7553C22.1371 14.3032 21.8176 12.9238 21.2078 11.7186C23.3568 11.4282 25.6365 11.8347 27.2773 12.9238C29.5716 14.4339 29.5716 16.9169 27.2919 18.4416Z" fill="white"/>
<path d="M6.45296 8.37833C6.5546 8.36381 6.65625 8.36381 6.75789 8.37833C9.00857 8.30573 10.7946 6.46162 10.7946 4.19642C10.7946 1.87314 8.92144 0 6.59816 0C4.2894 0 2.41626 1.87314 2.41626 4.19642C2.41626 6.46162 4.20228 8.30573 6.45296 8.37833Z" fill="white"/>
<path d="M6.61409 15.7555C6.61409 17.164 6.91902 18.4999 7.4708 19.7051C5.42341 19.9229 3.28889 19.4873 1.72068 18.4564C-0.57356 16.9317 -0.57356 14.4487 1.72068 12.9241C3.27437 11.8786 5.46697 11.4575 7.52888 11.6898C6.93354 12.9095 6.61409 14.289 6.61409 15.7555Z" fill="white"/>
<path d="M14.7017 20.1399C14.5855 20.1254 14.4548 20.1254 14.3241 20.1399C11.6524 20.0528 9.51782 17.8602 9.51782 15.1594C9.53234 12.4005 11.754 10.1643 14.5274 10.1643C17.2863 10.1643 19.5225 12.4005 19.5225 15.1594C19.508 17.8602 17.388 20.0528 14.7017 20.1399Z" fill="white"/>
<path d="M9.98234 23.1466C7.78974 24.6131 7.78974 27.0235 9.98234 28.4756C12.4799 30.1454 16.5747 30.1454 19.0722 28.4756C21.2648 27.009 21.2648 24.5986 19.0722 23.1466C16.5892 21.4767 12.4944 21.4767 9.98234 23.1466Z" fill="white"/>
</svg>
