<svg width="29" height="28" viewBox="0 0 29 28" fill="none" xmlns="http://www.w3.org/2000/svg">
<path d="M26.2319 9.65058C23.6087 9.65058 22.5362 7.79551 23.8406 5.52015C24.5942 4.20131 24.1449 2.52015 22.8261 1.76652L20.3188 0.331741C19.1739 -0.349418 17.6957 0.0563788 17.0145 1.20131L16.8551 1.47667C15.5507 3.75203 13.4058 3.75203 12.087 1.47667L11.9275 1.20131C11.2754 0.0563788 9.7971 -0.349418 8.65217 0.331741L6.14493 1.76652C4.82609 2.52015 4.37681 4.2158 5.13043 5.53464C6.44928 7.79551 5.37681 9.65058 2.75362 9.65058C1.24638 9.65058 0 10.8825 0 12.4042V14.9549C0 16.4622 1.23188 17.7086 2.75362 17.7086C5.37681 17.7086 6.44928 19.5636 5.13043 21.839C4.37681 23.1578 4.82609 24.839 6.14493 25.5926L8.65217 27.0274C9.7971 27.7086 11.2754 27.3028 11.9565 26.1578L12.1159 25.8825C13.4203 23.6071 15.5652 23.6071 16.8841 25.8825L17.0435 26.1578C17.7246 27.3028 19.2029 27.7086 20.3478 27.0274L22.8551 25.5926C24.1739 24.839 24.6232 23.1433 23.8696 21.839C22.5507 19.5636 23.6232 17.7086 26.2464 17.7086C27.7536 17.7086 29 16.4767 29 14.9549V12.4042C28.9855 10.897 27.7536 9.65058 26.2319 9.65058ZM14.4928 18.3897C11.8986 18.3897 9.78261 16.2738 9.78261 13.6796C9.78261 11.0854 11.8986 8.96942 14.4928 8.96942C17.087 8.96942 19.2029 11.0854 19.2029 13.6796C19.2029 16.2738 17.087 18.3897 14.4928 18.3897Z" fill="white"/>
</svg>
