<svg width="29" height="29" viewBox="0 0 29 29" fill="none" xmlns="http://www.w3.org/2000/svg">
<path d="M21.4097 0H17.6476C13.0172 0 10.1233 2.89395 10.1233 7.52426V13.3845H19.1669C19.7601 13.3845 20.2521 13.8765 20.2521 14.4697C20.2521 15.063 19.7601 15.555 19.1669 15.555H10.1233V21.4152C10.1233 26.0455 13.0172 28.9395 17.6476 28.9395H21.3952C26.0255 28.9395 28.9195 26.0455 28.9195 21.4152V7.52426C28.9339 2.89395 26.04 0 21.4097 0Z" fill="white"/>
<path d="M3.70063 13.3842L6.69587 10.389C6.91291 10.172 7.0142 9.89707 7.0142 9.62214C7.0142 9.34722 6.91291 9.05782 6.69587 8.85524C6.27625 8.43562 5.5817 8.43562 5.16208 8.85524L0.314717 13.7025C-0.104906 14.1222 -0.104906 14.8167 0.314717 15.2363L5.16208 20.0837C5.5817 20.5033 6.27625 20.5033 6.69587 20.0837C7.11549 19.6641 7.11549 18.9695 6.69587 18.5499L3.70063 15.5547H10.1252V13.3842H3.70063Z" fill="white"/>
</svg>
